<svg xmlns="http://www.w3.org/2000/svg" version="1.1" xmlns:xlink="http://www.w3.org/1999/xlink" xmlns:svgjs="http://svgjs.dev/svgjs" width="2000" height="1247" viewBox="0 0 2000 1247"><g transform="matrix(1,0,0,1,-1.2121212121212466,203.71373090268025)"><svg viewBox="0 0 396 247" data-background-color="#ffffff" preserveAspectRatio="xMidYMid meet" height="1247" width="2000" xmlns="http://www.w3.org/2000/svg" xmlns:xlink="http://www.w3.org/1999/xlink"><g id="tight-bounds" transform="matrix(1,0,0,1,0.2400000000000091,-0.09999999999999432)"><svg viewBox="0 0 395.52 247.2" height="247.2" width="395.52"><g><svg></svg></g><g><svg viewBox="0 0 395.52 247.2" height="247.2" width="395.52"><g transform="matrix(1,0,0,1,75.54432,80.98932096927983)"><svg viewBox="0 0 244.43135999999998 85.22135806144033" height="85.22135806144033" width="244.43135999999998"><g><svg viewBox="0 0 244.43135999999998 85.22135806144033" height="85.22135806144033" width="244.43135999999998"><g><svg viewBox="0 0 244.43135999999998 85.22135806144033" height="85.22135806144033" width="244.43135999999998"><g><svg viewBox="0 0 244.43135999999998 85.22135806144033" height="85.22135806144033" width="244.43135999999998"><g id="textblocktransform"><svg viewBox="0 0 244.43135999999998 85.22135806144033" height="85.22135806144033" width="244.43135999999998" id="textblock"><g><svg viewBox="0 0 244.43135999999998 49.67211964099129" height="49.67211964099129" width="244.43135999999998"><g transform="matrix(1,0,0,1,0,0)"><svg width="244.43135999999998" viewBox="4.5 -37.5 186.61 37.93" height="49.67211964099129" data-palette-color="#0c0a0f"><path d="M4.5-33.5L5-37.5 27.5-37.5 27.5-33.5 18.55-33.5 18.55-4 28-4 27.5 0 5 0 5-4 13.9-4 13.9-33.5 4.5-33.5ZM46.77-23.5L46.77-9.4Q46.77-7.75 46.96-6.64 47.15-5.53 47.51-4.84 47.87-4.15 48.41-3.86 48.95-3.58 49.65-3.58L49.65-3.58Q50.82-3.58 51.97-3.85 53.12-4.13 54.12-4.49 55.12-4.85 55.9-5.21 56.67-5.58 57.1-5.75L57.1-5.75 58.82-2.73Q58.6-2.53 57.73-2.01 56.87-1.5 55.56-0.95 54.25-0.4 52.6 0.01 50.95 0.43 49.15 0.43L49.15 0.43Q46.9 0.43 45.54-0.4 44.17-1.23 43.45-2.65 42.72-4.08 42.5-5.96 42.27-7.85 42.27-10L42.27-10 42.27-23.5 35-23.5 35-27.5 42.27-27.5 42.27-32.73 46.65-35.5 46.65-27.5 58.75-27.5 58.25-23.5 46.77-23.5ZM88.12-5.9L90.84-3.23Q90.07-2.43 89.15-1.75 88.22-1.07 87.09-0.59 85.97-0.1 84.61 0.16 83.25 0.43 81.57 0.43L81.57 0.43Q78.25 0.43 75.82-0.75 73.4-1.93 71.82-3.9 70.25-5.88 69.5-8.43 68.75-10.98 68.75-13.75L68.75-13.75Q68.75-15.53 69.11-17.26 69.47-19 70.16-20.58 70.84-22.15 71.88-23.5 72.92-24.85 74.28-25.83 75.65-26.8 77.31-27.36 78.97-27.93 80.95-27.93L80.95-27.93Q83.65-27.93 85.82-27.05 88-26.18 89.52-24.6 91.05-23.03 91.87-20.81 92.7-18.6 92.7-15.95L92.7-15.95Q92.7-15.18 92.65-14.25 92.59-13.33 92.5-12.5L92.5-12.5 73.5-12.5Q73.5-10.58 74.09-8.94 74.7-7.3 75.73-6.11 76.77-4.93 78.18-4.25 79.59-3.58 81.25-3.58L81.25-3.58Q82.84-3.58 83.98-3.81 85.12-4.05 85.91-4.4 86.7-4.75 87.22-5.15 87.75-5.55 88.12-5.9L88.12-5.9ZM77.12-16.25L88.3-16.25 88.3-17.35Q88.3-18.78 87.73-19.98 87.17-21.18 86.21-22.06 85.25-22.95 83.98-23.45 82.72-23.95 81.32-23.95L81.32-23.95Q79.65-23.95 78.38-23.41 77.12-22.88 76.22-22.04 75.32-21.2 74.77-20.2 74.22-19.2 73.97-18.3L73.97-18.3 72.5-15.45 77.12-16.25ZM107.27-28L107.27-22.38 109.54-26.33Q110.24-26.85 111.14-27.18 112.04-27.5 112.99-27.66 113.94-27.83 114.91-27.88 115.87-27.93 116.74-27.93L116.74-27.93Q118.62-27.93 119.94-27.76 121.27-27.6 122.18-27.35 123.09-27.1 123.64-26.84 124.19-26.58 124.49-26.38L124.49-26.38 125.74-19.25 121.99-18.75 120.74-23.2Q120.54-23.28 120.12-23.35 119.69-23.43 119.14-23.5 118.59-23.58 117.98-23.63 117.37-23.68 116.82-23.68L116.82-23.68Q115.12-23.68 113.67-23.29 112.22-22.9 111.02-22.23 109.82-21.55 108.88-20.65 107.94-19.75 107.27-18.75L107.27-18.75 107.27 0 102.77 0 102.77-27.5 107.27-28ZM147.77-27.5L147.77-9.83Q147.77-8.53 147.93-7.43 148.09-6.33 148.47-5.53 148.84-4.73 149.47-4.28 150.09-3.83 151.02-3.83L151.02-3.83Q152.24-3.83 153.4-4.03 154.56-4.23 155.49-4.49 156.42-4.75 157.03-4.98 157.64-5.2 157.79-5.25L157.79-5.25 158.77-1.4Q158.62-1.33 157.97-1.03 157.31-0.73 156.27-0.41 155.22-0.1 153.81 0.16 152.42 0.43 150.77 0.43L150.77 0.43Q148.31 0.43 146.8-0.38 145.29-1.18 144.44-2.59 143.59-4 143.3-5.93 143.02-7.85 143.02-10.08L143.02-10.08 143.02-23 144.02-24.5 140.52-23.5 135.49-23.5 134.99-27.5 147.77-27.5ZM142.87-32.5L142.87-37.5 147.92-37.5 147.92-32.5 142.87-32.5ZM178.71 0.43L178.71 0.43Q175.94 0.43 173.63-0.66 171.31-1.75 169.64-3.66 167.96-5.58 167.03-8.18 166.09-10.78 166.09-13.83L166.09-13.83Q166.09-16.85 166.99-19.44 167.89-22.03 169.54-23.91 171.19-25.8 173.53-26.86 175.86-27.93 178.71-27.93L178.71-27.93Q181.49-27.93 183.76-26.86 186.04-25.8 187.68-23.91 189.31-22.03 190.21-19.44 191.11-16.85 191.11-13.83L191.11-13.83Q191.11-10.78 190.25-8.18 189.39-5.58 187.78-3.66 186.16-1.75 183.86-0.66 181.56 0.43 178.71 0.43ZM186.36-13.15L186.36-13.15Q186.36-15.18 185.94-17.13 185.51-19.07 184.59-20.61 183.66-22.15 182.19-23.1 180.71-24.05 178.61-24.05L178.61-24.05Q176.61-24.05 175.14-23.23 173.66-22.4 172.71-21.03 171.76-19.65 171.3-17.9 170.84-16.15 170.84-14.3L170.84-14.3Q170.84-12.28 171.3-10.33 171.76-8.38 172.73-6.85 173.69-5.33 175.2-4.39 176.71-3.45 178.81-3.45L178.81-3.45Q180.79-3.45 182.23-4.28 183.66-5.1 184.58-6.46 185.49-7.83 185.93-9.56 186.36-11.3 186.36-13.15Z" opacity="1" transform="matrix(1,0,0,1,0,0)" fill="#0c0a0f" class="wordmark-text-0" data-fill-palette-color="primary" id="text-0"></path></svg></g></svg></g><g transform="matrix(1,0,0,1,0,61.39851495735795)"><svg viewBox="0 0 244.43135999999998 23.822843104082384" height="23.822843104082384" width="244.43135999999998"><g transform="matrix(1,0,0,1,0,0)"><svg width="244.43135999999998" viewBox="3.98 -40.5 543.76 53" height="23.822843104082384" data-palette-color="#0c0a0f"><path d="M28.4 0L23.65 0 23.65-18.13 9.45-18.13 9.45 0 4.7 0 4.7-32.25 3.98-37.5 9.45-38 9.45-22.13 23.65-22.13 23.65-37.5 28.4-38 28.4 0ZM55.62-5.9L58.35-3.23Q57.57-2.43 56.65-1.75 55.72-1.07 54.6-0.59 53.47-0.1 52.11 0.16 50.75 0.43 49.07 0.43L49.07 0.43Q45.75 0.43 43.32-0.75 40.9-1.93 39.32-3.9 37.75-5.88 37-8.43 36.25-10.98 36.25-13.75L36.25-13.75Q36.25-15.53 36.61-17.26 36.97-19 37.66-20.58 38.35-22.15 39.39-23.5 40.42-24.85 41.79-25.83 43.15-26.8 44.81-27.36 46.47-27.93 48.45-27.93L48.45-27.93Q51.15-27.93 53.32-27.05 55.5-26.18 57.02-24.6 58.55-23.03 59.37-20.81 60.2-18.6 60.2-15.95L60.2-15.95Q60.2-15.18 60.15-14.25 60.1-13.33 60-12.5L60-12.5 41-12.5Q41-10.58 41.6-8.94 42.2-7.3 43.23-6.11 44.27-4.93 45.69-4.25 47.1-3.58 48.75-3.58L48.75-3.58Q50.35-3.58 51.48-3.81 52.62-4.05 53.41-4.4 54.2-4.75 54.72-5.15 55.25-5.55 55.62-5.9L55.62-5.9ZM44.62-16.25L55.8-16.25 55.8-17.35Q55.8-18.78 55.23-19.98 54.67-21.18 53.71-22.06 52.75-22.95 51.48-23.45 50.22-23.95 48.82-23.95L48.82-23.95Q47.15-23.95 45.89-23.41 44.62-22.88 43.72-22.04 42.82-21.2 42.27-20.2 41.72-19.2 41.47-18.3L41.47-18.3 40-15.45 44.62-16.25ZM77.75-10L77.75-35.5 78.75-37 75.25-36 70.22-36 69.72-40 82.25-40 82.25-9.4Q82.25-7.75 82.5-6.64 82.75-5.53 83.17-4.84 83.59-4.15 84.2-3.86 84.8-3.58 85.5-3.58L85.5-3.58Q86.5-3.58 87.33-3.73 88.17-3.88 88.83-4.1 89.5-4.33 89.98-4.58 90.47-4.83 90.77-5L90.77-5 92.5-1.98Q92.3-1.8 91.67-1.4 91.05-1 90.08-0.6 89.12-0.2 87.83 0.11 86.55 0.43 85 0.43L85 0.43Q82.75 0.43 81.32-0.4 79.9-1.23 79.11-2.65 78.32-4.08 78.03-5.96 77.75-7.85 77.75-10L77.75-10ZM107.24-20.68L107.24-4 111.34-4Q113.64-4 115.52-4.76 117.39-5.53 118.72-6.9 120.04-8.28 120.77-10.2 121.49-12.13 121.49-14.45L121.49-14.45Q121.49-16.9 120.82-18.69 120.14-20.48 119.09-21.64 118.04-22.8 116.76-23.36 115.47-23.93 114.24-23.93L114.24-23.93Q113.02-23.93 111.96-23.61 110.89-23.3 110.01-22.83 109.12-22.35 108.42-21.78 107.72-21.2 107.24-20.68L107.24-20.68ZM107.24 12.5L102.74 12.5 102.74-27.5 107.24-28 107.24-23.6 109.62-26.78Q110.34-27.2 111.68-27.56 113.02-27.93 114.97-27.93L114.97-27.93Q117.04-27.93 119.07-26.95 121.09-25.98 122.68-24.18 124.27-22.38 125.26-19.83 126.24-17.28 126.24-14.13L126.24-14.13Q126.24-11.05 125.06-8.46 123.87-5.88 121.78-3.99 119.69-2.1 116.89-1.05 114.09 0 110.87 0L110.87 0 107.24 0 107.24 12.5ZM185.76-7.5L185.76-27.5 190.26-28 190.26 0 185.76 0 185.76-4.5 184.24-1.83Q184.01-1.55 183.51-1.18 183.01-0.8 182.26-0.44 181.51-0.08 180.54 0.18 179.56 0.43 178.36 0.43L178.36 0.43Q175.34 0.43 173.3-0.51 171.26-1.45 170.04-3 168.81-4.55 168.29-6.58 167.76-8.6 167.76-10.75L167.76-10.75 167.76-27.5 172.26-28 172.26-10.75Q172.26-9.13 172.59-7.83 172.91-6.53 173.7-5.6 174.49-4.67 175.8-4.19 177.11-3.7 179.06-3.7L179.06-3.7Q180.51-3.7 181.64-4.11 182.76-4.53 183.6-5.11 184.44-5.7 184.98-6.35 185.51-7 185.76-7.5L185.76-7.5ZM220.49-26.18L219.04-22.48Q218.56-22.7 217.9-22.99 217.24-23.28 216.41-23.51 215.59-23.75 214.6-23.91 213.61-24.08 212.49-24.08L212.49-24.08Q210.96-24.08 209.51-23.93 208.06-23.78 206.94-23.38 205.81-22.98 205.12-22.3 204.44-21.63 204.44-20.55L204.44-20.55Q204.44-19.65 205.11-19.01 205.79-18.38 206.87-17.91 207.96-17.45 209.34-17.11 210.71-16.78 212.11-16.48 213.51-16.18 214.81-15.89 216.11-15.6 217.06-15.25L217.06-15.25Q218.16-14.83 219.12-14.18 220.09-13.53 220.81-12.66 221.54-11.8 221.95-10.76 222.36-9.73 222.36-8.53L222.36-8.53Q222.36-6.9 221.74-5.61 221.11-4.33 220.05-3.34 218.99-2.35 217.59-1.64 216.19-0.93 214.62-0.46 213.06 0 211.45 0.21 209.84 0.43 208.36 0.43L208.36 0.43Q207.51 0.43 206.25 0.26 204.99 0.1 203.67-0.19 202.36-0.48 201.19-0.88 200.01-1.28 199.36-1.73L199.36-1.73 201.01-5.28Q201.61-4.98 202.59-4.67 203.56-4.38 204.64-4.13 205.71-3.88 206.72-3.73 207.74-3.58 208.41-3.58L208.41-3.58Q209.19-3.58 210.15-3.66 211.11-3.75 212.12-3.96 213.14-4.17 214.1-4.54 215.06-4.9 215.81-5.45 216.56-6 217.02-6.75 217.49-7.5 217.49-8.5L217.49-8.5Q217.49-9.47 216.84-10.15 216.19-10.83 215.11-11.3 214.04-11.78 212.7-12.11 211.36-12.45 209.96-12.75 208.56-13.05 207.26-13.36 205.96-13.68 204.99-14.15L204.99-14.15Q203.56-14.83 202.62-15.61 201.69-16.4 201.12-17.28 200.56-18.15 200.34-19.1 200.11-20.05 200.11-21.05L200.11-21.05Q200.11-22.83 201.12-24.13 202.14-25.43 203.84-26.26 205.54-27.1 207.74-27.51 209.94-27.93 212.34-27.93L212.34-27.93Q213.64-27.93 214.87-27.78 216.11-27.63 217.2-27.38 218.29-27.13 219.14-26.81 219.99-26.5 220.49-26.18L220.49-26.18ZM231.28-3.18L231.28-3.18Q231.28-3.9 231.57-4.56 231.86-5.23 232.37-5.7 232.88-6.18 233.56-6.48 234.23-6.78 234.98-6.78L234.98-6.78Q235.71-6.78 236.37-6.51 237.03-6.25 237.55-5.75 238.06-5.25 238.37-4.49 238.68-3.73 238.68-2.75L238.68-2.75Q238.68-1.43 238.52-0.19 238.36 1.05 237.85 2.33 237.33 3.6 236.38 4.93 235.43 6.25 233.88 7.68L233.88 7.68 232.58 7.1Q233.16 6 233.61 4.83L233.61 4.83Q233.98 3.85 234.3 2.69 234.61 1.53 234.61 0.43L234.61 0.43Q233.98 0.4 233.38 0.15 232.78-0.1 232.31-0.54 231.83-0.98 231.56-1.65 231.28-2.33 231.28-3.18ZM302.25-20.83L302.25 0 297.75 0 297.75-35 297.25-40 302.25-40.5 302.25-23.75 304.48-26.63Q305.45-27.18 307.28-27.55 309.1-27.93 311.98-27.93L311.98-27.93Q315.75-27.93 317.74-25.44 319.73-22.95 319.73-18.25L319.73-18.25 319.73 0 314.98 0 314.98-17.73Q314.98-19.4 314.69-20.58 314.4-21.75 313.88-22.5 313.35-23.25 312.58-23.59 311.8-23.93 310.83-23.93L310.83-23.93Q309.33-23.93 307.97-23.63 306.6-23.33 305.48-22.86 304.35-22.4 303.52-21.85 302.68-21.3 302.25-20.83L302.25-20.83ZM348.1-5.9L350.83-3.23Q350.05-2.43 349.13-1.75 348.2-1.07 347.08-0.59 345.95-0.1 344.59 0.16 343.23 0.43 341.55 0.43L341.55 0.43Q338.23 0.43 335.8-0.75 333.38-1.93 331.8-3.9 330.23-5.88 329.48-8.43 328.73-10.98 328.73-13.75L328.73-13.75Q328.73-15.53 329.09-17.26 329.45-19 330.14-20.58 330.83-22.15 331.86-23.5 332.9-24.85 334.26-25.83 335.63-26.8 337.29-27.36 338.95-27.93 340.93-27.93L340.93-27.93Q343.63-27.93 345.8-27.05 347.98-26.18 349.5-24.6 351.03-23.03 351.85-20.81 352.68-18.6 352.68-15.95L352.68-15.95Q352.68-15.18 352.63-14.25 352.58-13.33 352.48-12.5L352.48-12.5 333.48-12.5Q333.48-10.58 334.08-8.94 334.68-7.3 335.71-6.11 336.75-4.93 338.16-4.25 339.58-3.58 341.23-3.58L341.23-3.58Q342.83-3.58 343.96-3.81 345.1-4.05 345.89-4.4 346.68-4.75 347.2-5.15 347.73-5.55 348.1-5.9L348.1-5.9ZM337.1-16.25L348.28-16.25 348.28-17.35Q348.28-18.78 347.71-19.98 347.15-21.18 346.19-22.06 345.23-22.95 343.96-23.45 342.7-23.95 341.3-23.95L341.3-23.95Q339.63-23.95 338.36-23.41 337.1-22.88 336.2-22.04 335.3-21.2 334.75-20.2 334.2-19.2 333.95-18.3L333.95-18.3 332.48-15.45 337.1-16.25ZM370.22-10L370.22-35.5 371.22-37 367.72-36 362.7-36 362.2-40 374.72-40 374.72-9.4Q374.72-7.75 374.97-6.64 375.22-5.53 375.65-4.84 376.07-4.15 376.67-3.86 377.27-3.58 377.97-3.58L377.97-3.58Q378.97-3.58 379.81-3.73 380.65-3.88 381.31-4.1 381.97-4.33 382.46-4.58 382.95-4.83 383.25-5L383.25-5 384.97-1.98Q384.77-1.8 384.15-1.4 383.52-1 382.56-0.6 381.6-0.2 380.31 0.11 379.02 0.43 377.47 0.43L377.47 0.43Q375.22 0.43 373.8-0.4 372.37-1.23 371.59-2.65 370.8-4.08 370.51-5.96 370.22-7.85 370.22-10L370.22-10ZM399.72-20.68L399.72-4 403.82-4Q406.12-4 408-4.76 409.87-5.53 411.2-6.9 412.52-8.28 413.25-10.2 413.97-12.13 413.97-14.45L413.97-14.45Q413.97-16.9 413.3-18.69 412.62-20.48 411.57-21.64 410.52-22.8 409.23-23.36 407.95-23.93 406.72-23.93L406.72-23.93Q405.5-23.93 404.43-23.61 403.37-23.3 402.48-22.83 401.6-22.35 400.9-21.78 400.2-21.2 399.72-20.68L399.72-20.68ZM399.72 12.5L395.22 12.5 395.22-27.5 399.72-28 399.72-23.6 402.1-26.78Q402.82-27.2 404.16-27.56 405.5-27.93 407.45-27.93L407.45-27.93Q409.52-27.93 411.55-26.95 413.57-25.98 415.16-24.18 416.75-22.38 417.73-19.83 418.72-17.28 418.72-14.13L418.72-14.13Q418.72-11.05 417.53-8.46 416.35-5.88 414.26-3.99 412.17-2.1 409.37-1.05 406.57 0 403.35 0L403.35 0 399.72 0 399.72 12.5ZM471.72-3.3L472.77-9.1 479.49-27.5 483.99-28 473.89 0.43Q473.14 2.53 472.28 4.6 471.42 6.68 470.33 8.33 469.24 9.98 467.88 10.99 466.52 12 464.77 12L464.77 12Q463.37 12 462.19 11.45 461.02 10.9 459.97 10L459.97 10 461.79 7.08Q461.94 7.23 462.18 7.43 462.42 7.63 462.7 7.81 462.99 8 463.33 8.13 463.67 8.25 464.02 8.25L464.02 8.25Q464.92 8.25 465.65 7.61 466.39 6.98 467.03 5.95 467.67 4.93 468.2 3.68 468.74 2.43 469.24 1.18L469.24 1.18 459.07-27.5 463.82-28 470.42-9.1 471.72-3.3ZM503.69 0.43L503.69 0.43Q500.91 0.43 498.6-0.66 496.29-1.75 494.61-3.66 492.94-5.58 492-8.18 491.06-10.78 491.06-13.83L491.06-13.83Q491.06-16.85 491.96-19.44 492.86-22.03 494.51-23.91 496.16-25.8 498.5-26.86 500.84-27.93 503.69-27.93L503.69-27.93Q506.46-27.93 508.74-26.86 511.01-25.8 512.65-23.91 514.29-22.03 515.19-19.44 516.09-16.85 516.09-13.83L516.09-13.83Q516.09-10.78 515.23-8.18 514.36-5.58 512.75-3.66 511.14-1.75 508.84-0.66 506.54 0.43 503.69 0.43ZM511.34-13.15L511.34-13.15Q511.34-15.18 510.91-17.13 510.49-19.07 509.56-20.61 508.64-22.15 507.16-23.1 505.69-24.05 503.59-24.05L503.59-24.05Q501.59-24.05 500.11-23.23 498.64-22.4 497.69-21.03 496.74-19.65 496.28-17.9 495.81-16.15 495.81-14.3L495.81-14.3Q495.81-12.28 496.28-10.33 496.74-8.38 497.7-6.85 498.66-5.33 500.18-4.39 501.69-3.45 503.79-3.45L503.79-3.45Q505.76-3.45 507.2-4.28 508.64-5.1 509.55-6.46 510.46-7.83 510.9-9.56 511.34-11.3 511.34-13.15ZM543.24-7.5L543.24-27.5 547.74-28 547.74 0 543.24 0 543.24-4.5 541.71-1.83Q541.49-1.55 540.99-1.18 540.49-0.8 539.74-0.44 538.99-0.08 538.01 0.18 537.04 0.43 535.84 0.43L535.84 0.43Q532.81 0.43 530.77-0.51 528.74-1.45 527.51-3 526.29-4.55 525.76-6.58 525.24-8.6 525.24-10.75L525.24-10.75 525.24-27.5 529.74-28 529.74-10.75Q529.74-9.13 530.06-7.83 530.38-6.53 531.17-5.6 531.96-4.67 533.27-4.19 534.59-3.7 536.54-3.7L536.54-3.7Q537.99-3.7 539.11-4.11 540.24-4.53 541.07-5.11 541.91-5.7 542.45-6.35 542.99-7 543.24-7.5L543.24-7.5Z" opacity="1" transform="matrix(1,0,0,1,0,0)" fill="#0c0a0f" class="slogan-text-1" data-fill-palette-color="secondary" id="text-1"></path></svg></g></svg></g></svg></g></svg></g><g></g></svg></g></svg></g></svg></g><g><path d="M88.288 69.263A122.216 122.216 0 0 1 307.232 69.263L302.753 69.263A117.736 117.736 0 0 0 92.767 69.263L88.288 69.263M88.288 177.937A122.216 122.216 0 0 0 307.232 177.937L302.753 177.937A117.736 117.736 0 0 1 92.767 177.937L88.288 177.937" fill="#0c0a0f" stroke="transparent" data-fill-palette-color="tertiary"></path></g></svg></g><defs></defs></svg><rect width="395.52" height="247.2" fill="none" stroke="none" visibility="hidden"></rect></g></svg></g></svg>